<svg id="Layer_1" data-name="Layer 1" xmlns="http://www.w3.org/2000/svg" xmlns:xlink="http://www.w3.org/1999/xlink" viewBox="0 0 299.9 79.69"><defs><linearGradient id="linear-gradient" x1="283.24" y1="-396.12" x2="294.04" y2="-396.12" gradientTransform="matrix(1, 0, 0, -1, -0.03, -356.22)" gradientUnits="userSpaceOnUse"><stop offset="0" stop-color="#bc4bce"/><stop offset="1" stop-color="#e346a2"/></linearGradient><linearGradient id="linear-gradient-2" x1="283.24" y1="-380.52" x2="294.03" y2="-380.52" xlink:href="#linear-gradient"/><linearGradient id="linear-gradient-3" x1="53.47" y1="-435.79" x2="272.91" y2="-346.24" xlink:href="#linear-gradient"/><linearGradient id="linear-gradient-4" x1="40.46" y1="-403.9" x2="259.89" y2="-314.35" xlink:href="#linear-gradient"/><linearGradient id="linear-gradient-5" x1="71.32" y1="-479.53" x2="290.76" y2="-389.98" xlink:href="#linear-gradient"/><linearGradient id="linear-gradient-6" x1="61.55" y1="-455.59" x2="280.98" y2="-366.04" xlink:href="#linear-gradient"/></defs><g id="Layer_1-2" data-name="Layer 1-2"><path d="M288.6,34.5a5.4,5.4,0,1,1-5.4,5.4,5.46,5.46,0,0,1,3.3-5A7.79,7.79,0,0,1,288.6,34.5Z" fill="url(#linear-gradient)"/><path d="M288.6,18.9a5.38,5.38,0,0,1,5.4,5.4,5.46,5.46,0,0,1-1.6,3.8,5.67,5.67,0,0,1-1.8,1.2,5.36,5.36,0,1,1-2-10.4Z" fill="url(#linear-gradient-2)"/><path d="M163.5,0a11.18,11.18,0,0,0-11.2,11.2h0V36.9a20.36,20.36,0,0,1-39.6,6.6,11.19,11.19,0,1,0-21.3,6.9c0,.1.1.3.1.4A42.7,42.7,0,0,0,174.6,37V11.1A11,11,0,0,0,163.5,0Z" fill="url(#linear-gradient-3)"/><path d="M72.6,0A11.18,11.18,0,0,0,61.4,11.2h0V36.9a20.36,20.36,0,0,1-39.6,6.6A11.19,11.19,0,0,0,.6,50.7,42.72,42.72,0,0,0,83.7,36.9V11.1A11.14,11.14,0,0,0,72.6,0Z" fill="url(#linear-gradient-4)"/><path d="M288.6,54.4h-4.2a13,13,0,0,1-13-13V15.2a11.2,11.2,0,1,0-22.4,0V41.5a35.29,35.29,0,0,0,35.3,35.3h4.2a11.15,11.15,0,0,0,.5-22.3h-.1c0-.1-.2-.1-.3-.1Z" fill="url(#linear-gradient-5)"/><path d="M213.6,2.8a36.94,36.94,0,0,0-10.5-1.4,11.18,11.18,0,0,0-11,11.4,11.3,11.3,0,0,0,11,11,16.65,16.65,0,0,1,.5,33.3h-.5a16.68,16.68,0,0,1-6.2-1.2,11.15,11.15,0,1,0-8.3,20.7A39,39,0,0,0,217.8,4.2C216.4,3.7,215,3.2,213.6,2.8Z" fill="url(#linear-gradient-6)"/></g></svg>