<svg id="Layer_1" data-name="Layer 1" xmlns="http://www.w3.org/2000/svg" viewBox="0 0 56.37 67.71"><defs><style>.cls-1{fill:#913aa3;}.cls-2{fill:#fff;}</style></defs><path class="cls-1" d="M56.37,27.75c-.12,7.82-2.36,14.19-6.92,19.72C43.2,55.06,37,58.65,30.7,66.23c-1.62,2-3.4,2-5,0C19.17,58.32,12.51,54.5,6.16,46.45-3,34.89-1.8,17.76,8.62,7.78c6.14-5.88,13.55-8.27,22-7.7a27.64,27.64,0,0,1,25.3,23.54C56.21,25.21,56.28,26.82,56.37,27.75Z"/><circle class="cls-2" cx="28.18" cy="27.45" r="18.39"/><path class="cls-1" d="M22.18,37.88c-.26-.05-.52-.09-.78-.16a3.58,3.58,0,0,1-2.73-3.43,12.26,12.26,0,0,1,.79-5.16,4.73,4.73,0,0,1,2.12-2.56,4.21,4.21,0,0,1,2.08-.5,1.59,1.59,0,0,1,.68.24c.34.18.65.41,1,.61a5.1,5.1,0,0,0,5.74,0c.26-.17.54-.32.78-.51a1.93,1.93,0,0,1,1.51-.31,4.22,4.22,0,0,1,3.23,2.33,9.47,9.47,0,0,1,1.05,3.71,19,19,0,0,1,.08,2,3.65,3.65,0,0,1-3.37,3.7.83.83,0,0,0-.15,0Z"/><path class="cls-1" d="M33.55,20.52a5.51,5.51,0,1,1-5.5-5.5A5.5,5.5,0,0,1,33.55,20.52Z"/></svg>