<svg id="Layer_1" data-name="Layer 1" xmlns="http://www.w3.org/2000/svg" viewBox="0 0 49.33 59.25"><path d="M49.33,24.28a26.57,26.57,0,0,1-6,17.26C37.81,48.18,32.34,51.32,26.87,58c-1.42,1.72-3,1.72-4.39,0C16.77,51,11,47.7,5.39,40.65c-8-10.12-7-25.1,2.16-33.84C12.92,1.66,19.4-.43,26.81.07A24.19,24.19,0,0,1,49,20.67C49.19,22.06,49.25,23.47,49.33,24.28Z" style="fill:#913aa3"/><circle cx="24.66" cy="24.02" r="16.09" style="fill:#fff"/><path d="M19.41,33.15c-.23,0-.46-.08-.68-.14a3.14,3.14,0,0,1-2.39-3A10.56,10.56,0,0,1,17,25.49a4.17,4.17,0,0,1,1.85-2.24,3.65,3.65,0,0,1,1.82-.43,1.3,1.3,0,0,1,.6.2c.3.16.57.36.86.54a4.46,4.46,0,0,0,5,0c.23-.15.47-.29.69-.45a1.65,1.65,0,0,1,1.31-.27,3.73,3.73,0,0,1,2.84,2,8.36,8.36,0,0,1,.91,3.24A17.26,17.26,0,0,1,33,29.88a3.2,3.2,0,0,1-2.95,3.23l-.13,0Z" style="fill:#913aa3"/><path d="M29.36,18a4.82,4.82,0,1,1-4.82-4.82A4.81,4.81,0,0,1,29.36,18Z" style="fill:#913aa3"/></svg>